<svg xmlns="http://www.w3.org/2000/svg" width="1200" height="420" viewBox="0 0 1200 420" role="img" aria-labelledby="title desc">
  <title id="title">taste</title>
  <desc id="desc">RECOMMENDER</desc>
  <defs>
    <radialGradient id="bg" cx="0.32" cy="0.42" r="0.95" gradientUnits="userSpaceOnUse">
      <stop offset="0" stop-color="#15101F"/>
      <stop offset="0.55" stop-color="#0C0F16"/>
      <stop offset="1" stop-color="#0B0E11"/>
    </radialGradient>
    <linearGradient id="acc" x1="0" y1="0" x2="1" y2="0">
      <stop offset="0" stop-color="#7C5CFF"/>
      <stop offset="1" stop-color="#9B7BFF"/>
    </linearGradient>
    <linearGradient id="panel" x1="0" y1="0" x2="0" y2="1">
      <stop offset="0" stop-color="#161B26"/>
      <stop offset="1" stop-color="#10131B"/>
    </linearGradient>
  </defs>
  <rect width="1200" height="420" fill="url(#bg)"/>
  <rect x="598" y="56" width="1" height="312" fill="#222838"/>
  <text x="64" y="74" font-family="-apple-system,BlinkMacSystemFont,Segoe UI,sans-serif" font-size="12" letter-spacing="3" fill="#7C5CFF">RECOMMENDER</text>
  <text x="62" y="128" font-family="-apple-system,BlinkMacSystemFont,Segoe UI,sans-serif" font-size="50" font-weight="700" fill="#F4F6FB">taste</text>
  <rect x="64" y="146" width="52" height="4" rx="2" fill="url(#acc)"/>
<text x="64" y="176" font-family="-apple-system,BlinkMacSystemFont,Segoe UI,sans-serif" font-size="17" fill="#C7CEDB">Personalized recs from</text>
<text x="64" y="204" font-family="-apple-system,BlinkMacSystemFont,Segoe UI,sans-serif" font-size="17" fill="#C7CEDB">real consumption signals</text>
<text x="64" y="232" font-family="-apple-system,BlinkMacSystemFont,Segoe UI,sans-serif" font-size="17" fill="#C7CEDB">food, travel, shopping</text>
<circle cx="680" cy="300" r="12" fill="#28C840"/>
<circle cx="760" cy="330" r="12" fill="#7C5CFF"/>
<circle cx="700" cy="360" r="12" fill="#9B7BFF"/>
<path d="M780 330 C 860 320, 900 300, 910 250" fill="none" stroke="#7C5CFF" stroke-width="2" opacity="0.5"/><circle cx="1000" cy="220" r="90" fill="none" stroke="#222838" stroke-width="14"/><path d="M1000 220 L1060 170 A 90 90 0 0 1 1066 256" fill="none" stroke="url(#acc)" stroke-width="14" stroke-linecap="round"/>
</svg>